<mxfile host="app.diagrams.net" modified="2021-12-17T02:22:56.036Z" agent="5.0 (Windows NT 10.0; Win64; x64) AppleWebKit/537.36 (KHTML, like Gecko) Chrome/94.0.4606.71 Safari/537.36" etag="xkreh1XQehZM1uFMD3fl" version="15.9.6" type="github">
  <diagram id="cTy234SV_Wqvh5VTKdLX" name="第 1 页">
    <mxGraphModel dx="1964" dy="769" grid="1" gridSize="10" guides="1" tooltips="1" connect="1" arrows="1" fold="1" page="1" pageScale="1" pageWidth="827" pageHeight="1169" math="0" shadow="0">
      <root>
        <mxCell id="0" />
        <mxCell id="1" parent="0" />
        <mxCell id="ZC7nCOSCyeTa1KZI1qYi-1" value="" style="shape=image;verticalLabelPosition=bottom;labelBackgroundColor=#ffffff;verticalAlign=top;aspect=fixed;imageAspect=0;image=data:image/svg+xml,PHN2ZyB4bWxucz0iaHR0cDovL3d3dy53My5vcmcvMjAwMC9zdmciIHhtbG5zOnhsaW5rPSJodHRwOi8vd3d3LnczLm9yZy8xOTk5L3hsaW5rIiB0PSIxNjM5NzA2MzgxNDU4IiBjbGFzcz0iaWNvbiIgdmlld0JveD0iMCAwIDEwMjQgMTAyNCIgdmVyc2lvbj0iMS4xIiBwLWlkPSIyMTA2IiB3aWR0aD0iMjUwIiBoZWlnaHQ9IjI1MCI+PGRlZnM+PHN0eWxlIHR5cGU9InRleHQvY3NzIi8+PC9kZWZzPjxwYXRoIGQ9Ik01NDAuMiAyNDQuNGMtMTIuMS0yMi41LTQ0LjMtMjIuNS01Ni40IDBMNjQuNSAxMDI0aDU5LjFjMTIuMSAwIDIzLjItNi45IDI4LjYtMTcuN2w3MS0xNDIuM2g1NzcuNmw3MSAxNDIuM2M1LjQgMTAuOSAxNi41IDE3LjcgMjguNiAxNy43aDU5LjFMNTQwLjIgMjQ0LjR6IG0tNDIuMyAxMDguOWM2LTExLjIgMjIuMS0xMS4yIDI4LjIgMEw2MjguNyA1NDRIMzk1LjNsMTAyLjYtMTkwLjd6TTM2MC45IDYwOGgxNzAuMkwyODQuMiA3NTAuNSAzNjAuOSA2MDh6IG0tMzQuNCAxOTJMNjU5IDYwOGwzLjEtMS44IDAuOSAxLjggMTAzLjMgMTkySDMyNi41ek02NjkuOSAxNDYuN2wtNTIuNiAzNi40QzYzMiAyMDQuNCA2NDAgMjI5LjYgNjQwIDI1NnMtOCA1MS42LTIyLjcgNzIuOWw1Mi42IDM2LjRjMjEuNS0zMSAzNC4xLTY4LjcgMzQuMS0xMDkuM3MtMTIuNi03OC4zLTM0LjEtMTA5LjN6IG0tMzE1LjggMGMtMjEuNSAzMS0zNC4xIDY4LjctMzQuMSAxMDkuM3MxMi42IDc4LjMgMzQuMSAxMDkuM2w1Mi42LTM2LjRDMzkyIDMwNy42IDM4NCAyODIuNCAzODQgMjU2czgtNTEuNiAyMi43LTcyLjlsLTUyLjYtMzYuNHpNNzYyLjQgODIuNkw3MDkuOCAxMTljOS4xIDEzLjMgMTYuOCAyNy40IDIzLjEgNDIuNCAxMi43IDI5LjkgMTkuMSA2MS43IDE5LjEgOTQuNiAwIDMyLjgtNi40IDY0LjYtMTkuMSA5NC42LTYuMyAxNC45LTE0IDI5LjEtMjMuMSA0Mi40bDUyLjYgMzYuNEM3OTYuMiAzODAgODE2IDMyMC4zIDgxNiAyNTZzLTE5LjgtMTI0LTUzLjYtMTczLjR6IG0tNDUyLjIgMzMuN2wtNTIuNi0zNi40QzIyMi41IDEyOS43IDIwMiAxOTAuNSAyMDIgMjU2czIwLjUgMTI2LjMgNTUuNSAxNzYuMmw1Mi42LTM2LjRjLTkuOS0xNC4xLTE4LjMtMjkuMi0yNS4xLTQ1LjItMTIuNi0zMC0xOS02MS44LTE5LTk0LjZzNi40LTY0LjcgMTkuMS05NC42YzYuNy0xNiAxNS4xLTMxLjEgMjUuMS00NS4xek04ODEuOCAwbC01Mi42IDM2LjRjMTQuNCAyMSAyNi43IDQzLjUgMzYuNyA2Ny4xIDIwIDQ3LjMgMzAuMiA5Ny42IDMwLjIgMTQ5LjVTODg2IDM1NS4xIDg2NS45IDQwMi41Yy0xMC43IDI1LjItMjMuOSA0OS0zOS41IDcxLjJMODc5IDUxMGM1MS4xLTcyLjggODEtMTYxLjQgODEtMjU3IDAtOTMuOS0yOC45LTE4MS03OC4yLTI1M3pNMTI4IDI1M2MwLTUxLjkgMTAuMS0xMDIuMiAzMC4yLTE0OS41IDEwLTIzLjcgMjIuMy00Ni4xIDM2LjctNjcuMUwxNDIuMiAwQzkyLjkgNzIgNjQgMTU5LjEgNjQgMjUzYzAgOTUuNiAzMCAxODQuMyA4MSAyNTdsNTIuNi0zNi40Yy0xNS42LTIyLjItMjguOC00Ni0zOS41LTcxLjItMjAtNDcuMy0zMC4xLTk3LjUtMzAuMS0xNDkuNHoiIHAtaWQ9IjIxMDciIGZpbGw9IiM3MDcwNzAiLz48L3N2Zz4=;" vertex="1" parent="1">
          <mxGeometry x="280" y="10" width="280" height="280" as="geometry" />
        </mxCell>
        <mxCell id="ZC7nCOSCyeTa1KZI1qYi-2" value="" style="shape=image;verticalLabelPosition=bottom;labelBackgroundColor=#ffffff;verticalAlign=top;aspect=fixed;imageAspect=0;image=data:image/svg+xml,PHN2ZyB4bWxucz0iaHR0cDovL3d3dy53My5vcmcvMjAwMC9zdmciIHhtbG5zOnhsaW5rPSJodHRwOi8vd3d3LnczLm9yZy8xOTk5L3hsaW5rIiB0PSIxNjM5NzA2NjU0OTEzIiBjbGFzcz0iaWNvbiIgdmlld0JveD0iMCAwIDEwMjQgMTAyNCIgdmVyc2lvbj0iMS4xIiBwLWlkPSI5NzQiIHdpZHRoPSIyNTAiIGhlaWdodD0iMjUwIj48ZGVmcz48c3R5bGUgdHlwZT0idGV4dC9jc3MiLz48L2RlZnM+PHBhdGggZD0iTTk3NS45OTk3MzcgNDY1LjMwMDMxNmMtMC4zIDExMC43OTk5MzctMzkuNDk5OTc4IDIxMi40OTk4OC0xMDQuNTk5OTQxIDI5Mi4wOTk4MzUtMTEuOTk5OTkzIDE0LjY5OTk5Mi0zNC4wOTk5ODEgMTUuODk5OTkxLTQ3LjQ5OTk3MyAyLjQ5OTk5OS0xMS41OTk5OTMtMTEuNTk5OTkzLTEyLjQ5OTk5My0zMC4xOTk5ODMtMi4wOTk5OTgtNDIuODk5OTc2IDI0LjA5OTk4Ni0yOS40OTk5ODMgNDMuNzk5OTc1LTYyLjA5OTk2NSA1OC42OTk5NjYtOTcuMjk5OTQ1QzkwMS4zOTk3NzkgNTcwLjQwMDI1NyA5MTEuOTk5NzczIDUxOC4wMDAyODcgOTExLjk5OTc3MyA0NjQuMDAwMzE3YzAtNTMuOTk5OTY5LTEwLjU5OTk5NC0xMDYuMzk5OTQtMzEuMzk5OTgyLTE1NS42OTk5MTItMjAuMDk5OTg5LTQ3LjU5OTk3My00OC45OTk5NzItOTAuMzk5OTQ5LTg1Ljc5OTk1MS0xMjcuMTk5OTI4cy03OS40OTk5NTUtNjUuNTk5OTYzLTEyNy4xOTk5MjgtODUuNzk5OTUxQzYxOC4zOTk5NCA3NC42MDA1MzggNTY1Ljk5OTk2OSA2NC4wMDA1NDQgNTEyIDY0LjAwMDU0NFM0MDUuNjAwMDYgNzQuNjAwNTM4IDM1Ni4zMDAwODggOTUuNDAwNTI2Yy00Ny41OTk5NzMgMjAuMDk5OTg5LTkwLjM5OTk0OSA0OC45OTk5NzItMTI3LjE5OTkyOCA4NS43OTk5NTFzLTY1LjU5OTk2MyA3OS40OTk5NTUtODUuNzk5OTUxIDEyNy4xOTk5MjhDMTIyLjYwMDIyMSAzNTcuNjAwMzc3IDExMi4wMDAyMjcgNDEwLjAwMDM0OCAxMTIuMDAwMjI3IDQ2NC4wMDAzMTdzMTAuNTk5OTk0IDEwNi4zOTk5NCAzMS4zOTk5ODIgMTU1LjY5OTkxMmMxNC44OTk5OTIgMzUuMjk5OTggMzQuNTk5OTggNjcuODk5OTYyIDU4LjY5OTk2NyA5Ny4yOTk5NDUgMTAuMzk5OTk0IDEyLjY5OTk5MyA5LjU5OTk5NSAzMS4yOTk5ODItMi4wOTk5OTkgNDIuODk5OTc2LTEzLjM5OTk5MiAxMy4zOTk5OTItMzUuMzk5OTggMTIuMjk5OTkzLTQ3LjM5OTk3My0yLjI5OTk5OUM4Ny4zMDAyNDEgNjc3LjYwMDE5NiA0OC4wMDAyNjMgNTc1LjQwMDI1NCA0OC4wMDAyNjMgNDY0LjAwMDMxNyA0OC4wMDAyNjMgMjA3LjUwMDQ2MiAyNTYuMTAwMTQ1LTAuMzk5NDIgNTEyLjcgMC4wMDA1OGMyNTcuMDk5ODU0IDAuNCA0NjMuOTk5NzM3IDIwOC4xOTk4ODIgNDYzLjI5OTczNyA0NjUuMjk5NzM2eiIgcC1pZD0iOTc1IiBmaWxsPSIjNTE1MTUxIi8+PHBhdGggZD0iTTgxNS45OTk4MjggNDY0LjAwMDMxN2MwIDY2LjU5OTk2Mi0yMS4zOTk5ODggMTI4LjE5OTkyNy01Ny42OTk5NjggMTc4LjE5OTg5OS0xMS40OTk5OTMgMTUuODk5OTkxLTM0LjQ5OTk4IDE3LjQ5OTk5LTQ4LjM5OTk3MiAzLjY5OTk5OC0xMS4wOTk5OTQtMTEuMDk5OTk0LTEyLjQ5OTk5My0yOC42OTk5ODQtMy4xOTk5OTgtNDEuMzk5OTc2IDEwLjU5OTk5NC0xNC41OTk5OTIgMTkuMzk5OTg5LTMwLjI5OTk4MyAyNi40OTk5ODUtNDcuMDk5OTc0IDEyLjQ5OTk5My0yOS40OTk5ODMgMTguNzk5OTg5LTYwLjk5OTk2NSAxOC43OTk5ODktOTMuMzk5OTQ3cy02LjI5OTk5Ni02My44OTk5NjQtMTguNzk5OTg5LTkzLjM5OTk0N2MtMTIuMDk5OTkzLTI4LjU5OTk4NC0yOS4zOTk5ODMtNTQuMTk5OTY5LTUxLjQ5OTk3MS03Ni4yOTk5NTctMjIuMDk5OTg3LTIyLjA5OTk4Ny00Ny42OTk5NzMtMzkuMzk5OTc4LTc2LjI5OTk1Ny01MS40OTk5NzEtMjkuNTk5OTgzLTEyLjQ5OTk5My02MC45OTk5NjUtMTguNzk5OTg5LTkzLjM5OTk0Ny0xOC43OTk5ODlzLTYzLjc5OTk2NCA2LjI5OTk5Ni05My4zOTk5NDcgMTguNzk5OTg5Yy0yOC41OTk5ODQgMTIuMDk5OTkzLTU0LjE5OTk2OSAyOS4zOTk5ODMtNzYuMjk5OTU3IDUxLjQ5OTk3MS0yMi4wOTk5ODcgMjIuMDk5OTg3LTM5LjM5OTk3OCA0Ny42OTk5NzMtNTEuNDk5OTcxIDc2LjI5OTk1Ny0xMi40OTk5OTMgMjkuNDk5OTgzLTE4Ljc5OTk4OSA2MC45OTk5NjUtMTguNzk5OTg5IDkzLjM5OTk0N3M2LjI5OTk5NiA2My43OTk5NjQgMTguNzk5OTg5IDkzLjM5OTk0N2M3LjA5OTk5NiAxNi42OTk5OTEgMTUuODk5OTkxIDMyLjQ5OTk4MiAyNi40OTk5ODUgNDcuMDk5OTc0IDkuMTk5OTk1IDEyLjc5OTk5MyA3Ljg5OTk5NiAzMC4yOTk5ODMtMy4xOTk5OTggNDEuMzk5OTc2LTEzLjc5OTk5MiAxMy43OTk5OTItMzYuODk5OTc5IDEyLjE5OTk5My00OC4zOTk5NzItMy42OTk5OTgtMzYuMjk5OTc5LTQ5Ljk5OTk3Mi01Ny42OTk5NjctMTExLjU5OTkzNy01Ny42OTk5NjgtMTc4LjE5OTg5OSAwLTE2Ny44OTk5MDUgMTM2LjA5OTkyMy0zMDMuOTk5ODI4IDMwMy45OTk4MjgtMzAzLjk5OTgyOHMzMDMuOTk5ODI4IDEzNi4wOTk5MjMgMzAzLjk5OTgyOCAzMDMuOTk5ODI4eiIgcC1pZD0iOTc2IiBmaWxsPSIjNTE1MTUxIi8+PHBhdGggZD0iTTU2My4yOTk5NzEgNTgxLjMwMDI1MWM0NC40OTk5NzUtMTkuNDk5OTg5IDc1LjY5OTk1Ny02My40OTk5NjQgNzYuNjk5OTU3LTExNC44OTk5MzUgMS4yOTk5OTktNzAuOTk5OTYtNTYuMDk5OTY4LTEyOS44OTk5MjYtMTI3LjA5OTkyOS0xMzAuMzk5OTI2LTcxLjA5OTk2LTAuNS0xMjguODk5OTI3IDU2Ljk5OTk2OC0xMjguODk5OTI3IDEyNy45OTk5MjcgMCA1Mi4zOTk5NyAzMS40OTk5ODIgOTcuNDk5OTQ1IDc2LjY5OTk1NyAxMTcuMjk5OTM0IDExLjY5OTk5MyA1LjA5OTk5NyAxOS4yOTk5ODkgMTYuNTk5OTkxIDE5LjI5OTk4OSAyOS4zOTk5ODNWODk2LjAwMDA3MmMwIDM1LjI5OTk4LTI4LjY5OTk4NCA2My45OTk5NjQtNjMuOTk5OTY0IDYzLjk5OTk2NGgtMTQuOTk5OTkxYy04Ljc5OTk5NSAwLTE1Ljk5OTk5MSA3LjE5OTk5Ni0xNS45OTk5OTEgMTUuOTk5OTkxdjMxLjk5OTk4MmMwIDguNzk5OTk1IDcuMTk5OTk2IDE1Ljk5OTk5MSAxNS45OTk5OTEgMTUuOTk5OTkxaDIyMi45OTk4NzRjOC43OTk5OTUgMCAxNS45OTk5OTEtNy4xOTk5OTYgMTUuOTk5OTkxLTE1Ljk5OTk5MXYtMzEuOTk5OTgyYzAtOC43OTk5OTUtNy4xOTk5OTYtMTUuOTk5OTkxLTE1Ljk5OTk5MS0xNS45OTk5OTFoLTE1Ljk5OTk5MWMtMzUuMjk5OTggMC02My45OTk5NjQtMjguNjk5OTg0LTYzLjk5OTk2NC02My45OTk5NjRWNjEwLjcwMDIzNGMwLTEyLjc5OTk5MyA3LjU5OTk5Ni0yNC4yOTk5ODYgMTkuMjk5OTg5LTI5LjM5OTk4M3pNNTEyIDUyOC4wMDAyODFjLTM1LjI5OTk4IDAtNjMuOTk5OTY0LTI4LjY5OTk4NC02My45OTk5NjQtNjMuOTk5OTY0czI4LjY5OTk4NC02My45OTk5NjQgNjMuOTk5OTY0LTYzLjk5OTk2NCA2My45OTk5NjQgMjguNjk5OTg0IDYzLjk5OTk2NCA2My45OTk5NjQtMjguNjk5OTg0IDYzLjk5OTk2NC02My45OTk5NjQgNjMuOTk5OTY0eiIgcC1pZD0iOTc3IiBmaWxsPSIjNTE1MTUxIi8+PC9zdmc+;" vertex="1" parent="1">
          <mxGeometry x="-10" y="320" width="100" height="100" as="geometry" />
        </mxCell>
        <mxCell id="ZC7nCOSCyeTa1KZI1qYi-5" value="" style="shape=image;verticalLabelPosition=bottom;labelBackgroundColor=#ffffff;verticalAlign=top;aspect=fixed;imageAspect=0;image=data:image/svg+xml,PHN2ZyB4bWxucz0iaHR0cDovL3d3dy53My5vcmcvMjAwMC9zdmciIHhtbG5zOnhsaW5rPSJodHRwOi8vd3d3LnczLm9yZy8xOTk5L3hsaW5rIiB0PSIxNjM5NzA2NjU0OTEzIiBjbGFzcz0iaWNvbiIgdmlld0JveD0iMCAwIDEwMjQgMTAyNCIgdmVyc2lvbj0iMS4xIiBwLWlkPSI5NzQiIHdpZHRoPSIyNTAiIGhlaWdodD0iMjUwIj48ZGVmcz48c3R5bGUgdHlwZT0idGV4dC9jc3MiLz48L2RlZnM+PHBhdGggZD0iTTk3NS45OTk3MzcgNDY1LjMwMDMxNmMtMC4zIDExMC43OTk5MzctMzkuNDk5OTc4IDIxMi40OTk4OC0xMDQuNTk5OTQxIDI5Mi4wOTk4MzUtMTEuOTk5OTkzIDE0LjY5OTk5Mi0zNC4wOTk5ODEgMTUuODk5OTkxLTQ3LjQ5OTk3MyAyLjQ5OTk5OS0xMS41OTk5OTMtMTEuNTk5OTkzLTEyLjQ5OTk5My0zMC4xOTk5ODMtMi4wOTk5OTgtNDIuODk5OTc2IDI0LjA5OTk4Ni0yOS40OTk5ODMgNDMuNzk5OTc1LTYyLjA5OTk2NSA1OC42OTk5NjYtOTcuMjk5OTQ1QzkwMS4zOTk3NzkgNTcwLjQwMDI1NyA5MTEuOTk5NzczIDUxOC4wMDAyODcgOTExLjk5OTc3MyA0NjQuMDAwMzE3YzAtNTMuOTk5OTY5LTEwLjU5OTk5NC0xMDYuMzk5OTQtMzEuMzk5OTgyLTE1NS42OTk5MTItMjAuMDk5OTg5LTQ3LjU5OTk3My00OC45OTk5NzItOTAuMzk5OTQ5LTg1Ljc5OTk1MS0xMjcuMTk5OTI4cy03OS40OTk5NTUtNjUuNTk5OTYzLTEyNy4xOTk5MjgtODUuNzk5OTUxQzYxOC4zOTk5NCA3NC42MDA1MzggNTY1Ljk5OTk2OSA2NC4wMDA1NDQgNTEyIDY0LjAwMDU0NFM0MDUuNjAwMDYgNzQuNjAwNTM4IDM1Ni4zMDAwODggOTUuNDAwNTI2Yy00Ny41OTk5NzMgMjAuMDk5OTg5LTkwLjM5OTk0OSA0OC45OTk5NzItMTI3LjE5OTkyOCA4NS43OTk5NTFzLTY1LjU5OTk2MyA3OS40OTk5NTUtODUuNzk5OTUxIDEyNy4xOTk5MjhDMTIyLjYwMDIyMSAzNTcuNjAwMzc3IDExMi4wMDAyMjcgNDEwLjAwMDM0OCAxMTIuMDAwMjI3IDQ2NC4wMDAzMTdzMTAuNTk5OTk0IDEwNi4zOTk5NCAzMS4zOTk5ODIgMTU1LjY5OTkxMmMxNC44OTk5OTIgMzUuMjk5OTggMzQuNTk5OTggNjcuODk5OTYyIDU4LjY5OTk2NyA5Ny4yOTk5NDUgMTAuMzk5OTk0IDEyLjY5OTk5MyA5LjU5OTk5NSAzMS4yOTk5ODItMi4wOTk5OTkgNDIuODk5OTc2LTEzLjM5OTk5MiAxMy4zOTk5OTItMzUuMzk5OTggMTIuMjk5OTkzLTQ3LjM5OTk3My0yLjI5OTk5OUM4Ny4zMDAyNDEgNjc3LjYwMDE5NiA0OC4wMDAyNjMgNTc1LjQwMDI1NCA0OC4wMDAyNjMgNDY0LjAwMDMxNyA0OC4wMDAyNjMgMjA3LjUwMDQ2MiAyNTYuMTAwMTQ1LTAuMzk5NDIgNTEyLjcgMC4wMDA1OGMyNTcuMDk5ODU0IDAuNCA0NjMuOTk5NzM3IDIwOC4xOTk4ODIgNDYzLjI5OTczNyA0NjUuMjk5NzM2eiIgcC1pZD0iOTc1IiBmaWxsPSIjNTE1MTUxIi8+PHBhdGggZD0iTTgxNS45OTk4MjggNDY0LjAwMDMxN2MwIDY2LjU5OTk2Mi0yMS4zOTk5ODggMTI4LjE5OTkyNy01Ny42OTk5NjggMTc4LjE5OTg5OS0xMS40OTk5OTMgMTUuODk5OTkxLTM0LjQ5OTk4IDE3LjQ5OTk5LTQ4LjM5OTk3MiAzLjY5OTk5OC0xMS4wOTk5OTQtMTEuMDk5OTk0LTEyLjQ5OTk5My0yOC42OTk5ODQtMy4xOTk5OTgtNDEuMzk5OTc2IDEwLjU5OTk5NC0xNC41OTk5OTIgMTkuMzk5OTg5LTMwLjI5OTk4MyAyNi40OTk5ODUtNDcuMDk5OTc0IDEyLjQ5OTk5My0yOS40OTk5ODMgMTguNzk5OTg5LTYwLjk5OTk2NSAxOC43OTk5ODktOTMuMzk5OTQ3cy02LjI5OTk5Ni02My44OTk5NjQtMTguNzk5OTg5LTkzLjM5OTk0N2MtMTIuMDk5OTkzLTI4LjU5OTk4NC0yOS4zOTk5ODMtNTQuMTk5OTY5LTUxLjQ5OTk3MS03Ni4yOTk5NTctMjIuMDk5OTg3LTIyLjA5OTk4Ny00Ny42OTk5NzMtMzkuMzk5OTc4LTc2LjI5OTk1Ny01MS40OTk5NzEtMjkuNTk5OTgzLTEyLjQ5OTk5My02MC45OTk5NjUtMTguNzk5OTg5LTkzLjM5OTk0Ny0xOC43OTk5ODlzLTYzLjc5OTk2NCA2LjI5OTk5Ni05My4zOTk5NDcgMTguNzk5OTg5Yy0yOC41OTk5ODQgMTIuMDk5OTkzLTU0LjE5OTk2OSAyOS4zOTk5ODMtNzYuMjk5OTU3IDUxLjQ5OTk3MS0yMi4wOTk5ODcgMjIuMDk5OTg3LTM5LjM5OTk3OCA0Ny42OTk5NzMtNTEuNDk5OTcxIDc2LjI5OTk1Ny0xMi40OTk5OTMgMjkuNDk5OTgzLTE4Ljc5OTk4OSA2MC45OTk5NjUtMTguNzk5OTg5IDkzLjM5OTk0N3M2LjI5OTk5NiA2My43OTk5NjQgMTguNzk5OTg5IDkzLjM5OTk0N2M3LjA5OTk5NiAxNi42OTk5OTEgMTUuODk5OTkxIDMyLjQ5OTk4MiAyNi40OTk5ODUgNDcuMDk5OTc0IDkuMTk5OTk1IDEyLjc5OTk5MyA3Ljg5OTk5NiAzMC4yOTk5ODMtMy4xOTk5OTggNDEuMzk5OTc2LTEzLjc5OTk5MiAxMy43OTk5OTItMzYuODk5OTc5IDEyLjE5OTk5My00OC4zOTk5NzItMy42OTk5OTgtMzYuMjk5OTc5LTQ5Ljk5OTk3Mi01Ny42OTk5NjctMTExLjU5OTkzNy01Ny42OTk5NjgtMTc4LjE5OTg5OSAwLTE2Ny44OTk5MDUgMTM2LjA5OTkyMy0zMDMuOTk5ODI4IDMwMy45OTk4MjgtMzAzLjk5OTgyOHMzMDMuOTk5ODI4IDEzNi4wOTk5MjMgMzAzLjk5OTgyOCAzMDMuOTk5ODI4eiIgcC1pZD0iOTc2IiBmaWxsPSIjNTE1MTUxIi8+PHBhdGggZD0iTTU2My4yOTk5NzEgNTgxLjMwMDI1MWM0NC40OTk5NzUtMTkuNDk5OTg5IDc1LjY5OTk1Ny02My40OTk5NjQgNzYuNjk5OTU3LTExNC44OTk5MzUgMS4yOTk5OTktNzAuOTk5OTYtNTYuMDk5OTY4LTEyOS44OTk5MjYtMTI3LjA5OTkyOS0xMzAuMzk5OTI2LTcxLjA5OTk2LTAuNS0xMjguODk5OTI3IDU2Ljk5OTk2OC0xMjguODk5OTI3IDEyNy45OTk5MjcgMCA1Mi4zOTk5NyAzMS40OTk5ODIgOTcuNDk5OTQ1IDc2LjY5OTk1NyAxMTcuMjk5OTM0IDExLjY5OTk5MyA1LjA5OTk5NyAxOS4yOTk5ODkgMTYuNTk5OTkxIDE5LjI5OTk4OSAyOS4zOTk5ODNWODk2LjAwMDA3MmMwIDM1LjI5OTk4LTI4LjY5OTk4NCA2My45OTk5NjQtNjMuOTk5OTY0IDYzLjk5OTk2NGgtMTQuOTk5OTkxYy04Ljc5OTk5NSAwLTE1Ljk5OTk5MSA3LjE5OTk5Ni0xNS45OTk5OTEgMTUuOTk5OTkxdjMxLjk5OTk4MmMwIDguNzk5OTk1IDcuMTk5OTk2IDE1Ljk5OTk5MSAxNS45OTk5OTEgMTUuOTk5OTkxaDIyMi45OTk4NzRjOC43OTk5OTUgMCAxNS45OTk5OTEtNy4xOTk5OTYgMTUuOTk5OTkxLTE1Ljk5OTk5MXYtMzEuOTk5OTgyYzAtOC43OTk5OTUtNy4xOTk5OTYtMTUuOTk5OTkxLTE1Ljk5OTk5MS0xNS45OTk5OTFoLTE1Ljk5OTk5MWMtMzUuMjk5OTggMC02My45OTk5NjQtMjguNjk5OTg0LTYzLjk5OTk2NC02My45OTk5NjRWNjEwLjcwMDIzNGMwLTEyLjc5OTk5MyA3LjU5OTk5Ni0yNC4yOTk5ODYgMTkuMjk5OTg5LTI5LjM5OTk4M3pNNTEyIDUyOC4wMDAyODFjLTM1LjI5OTk4IDAtNjMuOTk5OTY0LTI4LjY5OTk4NC02My45OTk5NjQtNjMuOTk5OTY0czI4LjY5OTk4NC02My45OTk5NjQgNjMuOTk5OTY0LTYzLjk5OTk2NCA2My45OTk5NjQgMjguNjk5OTg0IDYzLjk5OTk2NCA2My45OTk5NjQtMjguNjk5OTg0IDYzLjk5OTk2NC02My45OTk5NjQgNjMuOTk5OTY0eiIgcC1pZD0iOTc3IiBmaWxsPSIjNTE1MTUxIi8+PC9zdmc+;" vertex="1" parent="1">
          <mxGeometry x="370" y="320" width="100" height="100" as="geometry" />
        </mxCell>
        <mxCell id="ZC7nCOSCyeTa1KZI1qYi-6" value="" style="shape=image;verticalLabelPosition=bottom;labelBackgroundColor=#ffffff;verticalAlign=top;aspect=fixed;imageAspect=0;image=data:image/svg+xml,PHN2ZyB4bWxucz0iaHR0cDovL3d3dy53My5vcmcvMjAwMC9zdmciIHhtbG5zOnhsaW5rPSJodHRwOi8vd3d3LnczLm9yZy8xOTk5L3hsaW5rIiB0PSIxNjM5NzA2NjU0OTEzIiBjbGFzcz0iaWNvbiIgdmlld0JveD0iMCAwIDEwMjQgMTAyNCIgdmVyc2lvbj0iMS4xIiBwLWlkPSI5NzQiIHdpZHRoPSIyNTAiIGhlaWdodD0iMjUwIj48ZGVmcz48c3R5bGUgdHlwZT0idGV4dC9jc3MiLz48L2RlZnM+PHBhdGggZD0iTTk3NS45OTk3MzcgNDY1LjMwMDMxNmMtMC4zIDExMC43OTk5MzctMzkuNDk5OTc4IDIxMi40OTk4OC0xMDQuNTk5OTQxIDI5Mi4wOTk4MzUtMTEuOTk5OTkzIDE0LjY5OTk5Mi0zNC4wOTk5ODEgMTUuODk5OTkxLTQ3LjQ5OTk3MyAyLjQ5OTk5OS0xMS41OTk5OTMtMTEuNTk5OTkzLTEyLjQ5OTk5My0zMC4xOTk5ODMtMi4wOTk5OTgtNDIuODk5OTc2IDI0LjA5OTk4Ni0yOS40OTk5ODMgNDMuNzk5OTc1LTYyLjA5OTk2NSA1OC42OTk5NjYtOTcuMjk5OTQ1QzkwMS4zOTk3NzkgNTcwLjQwMDI1NyA5MTEuOTk5NzczIDUxOC4wMDAyODcgOTExLjk5OTc3MyA0NjQuMDAwMzE3YzAtNTMuOTk5OTY5LTEwLjU5OTk5NC0xMDYuMzk5OTQtMzEuMzk5OTgyLTE1NS42OTk5MTItMjAuMDk5OTg5LTQ3LjU5OTk3My00OC45OTk5NzItOTAuMzk5OTQ5LTg1Ljc5OTk1MS0xMjcuMTk5OTI4cy03OS40OTk5NTUtNjUuNTk5OTYzLTEyNy4xOTk5MjgtODUuNzk5OTUxQzYxOC4zOTk5NCA3NC42MDA1MzggNTY1Ljk5OTk2OSA2NC4wMDA1NDQgNTEyIDY0LjAwMDU0NFM0MDUuNjAwMDYgNzQuNjAwNTM4IDM1Ni4zMDAwODggOTUuNDAwNTI2Yy00Ny41OTk5NzMgMjAuMDk5OTg5LTkwLjM5OTk0OSA0OC45OTk5NzItMTI3LjE5OTkyOCA4NS43OTk5NTFzLTY1LjU5OTk2MyA3OS40OTk5NTUtODUuNzk5OTUxIDEyNy4xOTk5MjhDMTIyLjYwMDIyMSAzNTcuNjAwMzc3IDExMi4wMDAyMjcgNDEwLjAwMDM0OCAxMTIuMDAwMjI3IDQ2NC4wMDAzMTdzMTAuNTk5OTk0IDEwNi4zOTk5NCAzMS4zOTk5ODIgMTU1LjY5OTkxMmMxNC44OTk5OTIgMzUuMjk5OTggMzQuNTk5OTggNjcuODk5OTYyIDU4LjY5OTk2NyA5Ny4yOTk5NDUgMTAuMzk5OTk0IDEyLjY5OTk5MyA5LjU5OTk5NSAzMS4yOTk5ODItMi4wOTk5OTkgNDIuODk5OTc2LTEzLjM5OTk5MiAxMy4zOTk5OTItMzUuMzk5OTggMTIuMjk5OTkzLTQ3LjM5OTk3My0yLjI5OTk5OUM4Ny4zMDAyNDEgNjc3LjYwMDE5NiA0OC4wMDAyNjMgNTc1LjQwMDI1NCA0OC4wMDAyNjMgNDY0LjAwMDMxNyA0OC4wMDAyNjMgMjA3LjUwMDQ2MiAyNTYuMTAwMTQ1LTAuMzk5NDIgNTEyLjcgMC4wMDA1OGMyNTcuMDk5ODU0IDAuNCA0NjMuOTk5NzM3IDIwOC4xOTk4ODIgNDYzLjI5OTczNyA0NjUuMjk5NzM2eiIgcC1pZD0iOTc1IiBmaWxsPSIjNTE1MTUxIi8+PHBhdGggZD0iTTgxNS45OTk4MjggNDY0LjAwMDMxN2MwIDY2LjU5OTk2Mi0yMS4zOTk5ODggMTI4LjE5OTkyNy01Ny42OTk5NjggMTc4LjE5OTg5OS0xMS40OTk5OTMgMTUuODk5OTkxLTM0LjQ5OTk4IDE3LjQ5OTk5LTQ4LjM5OTk3MiAzLjY5OTk5OC0xMS4wOTk5OTQtMTEuMDk5OTk0LTEyLjQ5OTk5My0yOC42OTk5ODQtMy4xOTk5OTgtNDEuMzk5OTc2IDEwLjU5OTk5NC0xNC41OTk5OTIgMTkuMzk5OTg5LTMwLjI5OTk4MyAyNi40OTk5ODUtNDcuMDk5OTc0IDEyLjQ5OTk5My0yOS40OTk5ODMgMTguNzk5OTg5LTYwLjk5OTk2NSAxOC43OTk5ODktOTMuMzk5OTQ3cy02LjI5OTk5Ni02My44OTk5NjQtMTguNzk5OTg5LTkzLjM5OTk0N2MtMTIuMDk5OTkzLTI4LjU5OTk4NC0yOS4zOTk5ODMtNTQuMTk5OTY5LTUxLjQ5OTk3MS03Ni4yOTk5NTctMjIuMDk5OTg3LTIyLjA5OTk4Ny00Ny42OTk5NzMtMzkuMzk5OTc4LTc2LjI5OTk1Ny01MS40OTk5NzEtMjkuNTk5OTgzLTEyLjQ5OTk5My02MC45OTk5NjUtMTguNzk5OTg5LTkzLjM5OTk0Ny0xOC43OTk5ODlzLTYzLjc5OTk2NCA2LjI5OTk5Ni05My4zOTk5NDcgMTguNzk5OTg5Yy0yOC41OTk5ODQgMTIuMDk5OTkzLTU0LjE5OTk2OSAyOS4zOTk5ODMtNzYuMjk5OTU3IDUxLjQ5OTk3MS0yMi4wOTk5ODcgMjIuMDk5OTg3LTM5LjM5OTk3OCA0Ny42OTk5NzMtNTEuNDk5OTcxIDc2LjI5OTk1Ny0xMi40OTk5OTMgMjkuNDk5OTgzLTE4Ljc5OTk4OSA2MC45OTk5NjUtMTguNzk5OTg5IDkzLjM5OTk0N3M2LjI5OTk5NiA2My43OTk5NjQgMTguNzk5OTg5IDkzLjM5OTk0N2M3LjA5OTk5NiAxNi42OTk5OTEgMTUuODk5OTkxIDMyLjQ5OTk4MiAyNi40OTk5ODUgNDcuMDk5OTc0IDkuMTk5OTk1IDEyLjc5OTk5MyA3Ljg5OTk5NiAzMC4yOTk5ODMtMy4xOTk5OTggNDEuMzk5OTc2LTEzLjc5OTk5MiAxMy43OTk5OTItMzYuODk5OTc5IDEyLjE5OTk5My00OC4zOTk5NzItMy42OTk5OTgtMzYuMjk5OTc5LTQ5Ljk5OTk3Mi01Ny42OTk5NjctMTExLjU5OTkzNy01Ny42OTk5NjgtMTc4LjE5OTg5OSAwLTE2Ny44OTk5MDUgMTM2LjA5OTkyMy0zMDMuOTk5ODI4IDMwMy45OTk4MjgtMzAzLjk5OTgyOHMzMDMuOTk5ODI4IDEzNi4wOTk5MjMgMzAzLjk5OTgyOCAzMDMuOTk5ODI4eiIgcC1pZD0iOTc2IiBmaWxsPSIjNTE1MTUxIi8+PHBhdGggZD0iTTU2My4yOTk5NzEgNTgxLjMwMDI1MWM0NC40OTk5NzUtMTkuNDk5OTg5IDc1LjY5OTk1Ny02My40OTk5NjQgNzYuNjk5OTU3LTExNC44OTk5MzUgMS4yOTk5OTktNzAuOTk5OTYtNTYuMDk5OTY4LTEyOS44OTk5MjYtMTI3LjA5OTkyOS0xMzAuMzk5OTI2LTcxLjA5OTk2LTAuNS0xMjguODk5OTI3IDU2Ljk5OTk2OC0xMjguODk5OTI3IDEyNy45OTk5MjcgMCA1Mi4zOTk5NyAzMS40OTk5ODIgOTcuNDk5OTQ1IDc2LjY5OTk1NyAxMTcuMjk5OTM0IDExLjY5OTk5MyA1LjA5OTk5NyAxOS4yOTk5ODkgMTYuNTk5OTkxIDE5LjI5OTk4OSAyOS4zOTk5ODNWODk2LjAwMDA3MmMwIDM1LjI5OTk4LTI4LjY5OTk4NCA2My45OTk5NjQtNjMuOTk5OTY0IDYzLjk5OTk2NGgtMTQuOTk5OTkxYy04Ljc5OTk5NSAwLTE1Ljk5OTk5MSA3LjE5OTk5Ni0xNS45OTk5OTEgMTUuOTk5OTkxdjMxLjk5OTk4MmMwIDguNzk5OTk1IDcuMTk5OTk2IDE1Ljk5OTk5MSAxNS45OTk5OTEgMTUuOTk5OTkxaDIyMi45OTk4NzRjOC43OTk5OTUgMCAxNS45OTk5OTEtNy4xOTk5OTYgMTUuOTk5OTkxLTE1Ljk5OTk5MXYtMzEuOTk5OTgyYzAtOC43OTk5OTUtNy4xOTk5OTYtMTUuOTk5OTkxLTE1Ljk5OTk5MS0xNS45OTk5OTFoLTE1Ljk5OTk5MWMtMzUuMjk5OTggMC02My45OTk5NjQtMjguNjk5OTg0LTYzLjk5OTk2NC02My45OTk5NjRWNjEwLjcwMDIzNGMwLTEyLjc5OTk5MyA3LjU5OTk5Ni0yNC4yOTk5ODYgMTkuMjk5OTg5LTI5LjM5OTk4M3pNNTEyIDUyOC4wMDAyODFjLTM1LjI5OTk4IDAtNjMuOTk5OTY0LTI4LjY5OTk4NC02My45OTk5NjQtNjMuOTk5OTY0czI4LjY5OTk4NC02My45OTk5NjQgNjMuOTk5OTY0LTYzLjk5OTk2NCA2My45OTk5NjQgMjguNjk5OTg0IDYzLjk5OTk2NCA2My45OTk5NjQtMjguNjk5OTg0IDYzLjk5OTk2NC02My45OTk5NjQgNjMuOTk5OTY0eiIgcC1pZD0iOTc3IiBmaWxsPSIjNTE1MTUxIi8+PC9zdmc+;" vertex="1" parent="1">
          <mxGeometry x="750" y="320" width="100" height="100" as="geometry" />
        </mxCell>
        <mxCell id="ZC7nCOSCyeTa1KZI1qYi-24" style="edgeStyle=orthogonalEdgeStyle;rounded=0;orthogonalLoop=1;jettySize=auto;html=1;entryX=0;entryY=0.5;entryDx=0;entryDy=0;dashed=1;" edge="1" parent="1" source="ZC7nCOSCyeTa1KZI1qYi-8" target="ZC7nCOSCyeTa1KZI1qYi-2">
          <mxGeometry relative="1" as="geometry" />
        </mxCell>
        <mxCell id="ZC7nCOSCyeTa1KZI1qYi-8" value="" style="shape=image;verticalLabelPosition=bottom;labelBackgroundColor=#ffffff;verticalAlign=top;aspect=fixed;imageAspect=0;image=data:image/svg+xml,PHN2ZyB4bWxucz0iaHR0cDovL3d3dy53My5vcmcvMjAwMC9zdmciIHhtbG5zOnhsaW5rPSJodHRwOi8vd3d3LnczLm9yZy8xOTk5L3hsaW5rIiB0PSIxNjM5NzA3MDY3NDE5IiBjbGFzcz0iaWNvbiIgdmlld0JveD0iMCAwIDEwMjQgMTAyNCIgdmVyc2lvbj0iMS4xIiBwLWlkPSIxNzAwNyIgd2lkdGg9IjI1MCIgaGVpZ2h0PSIyNTAiPjxkZWZzPjxzdHlsZSB0eXBlPSJ0ZXh0L2NzcyIvPjwvZGVmcz48cGF0aCBkPSJNOTAyLjE0NCAxOTAuNDY0cTQzLjAwOCAxLjAyNCA2NC41MTIgMjQuMDY0dDIxLjUwNCA2MC45MjhsMCA0MS45ODRxMCAzNi44NjQtMC41MTIgODguNTc2dC0wLjUxMiAxMTEuNjE2LTAuNTEyIDExMi4xMjgtMC41MTIgOTAuMTEybDAgNDUuMDU2cTAgMzIuNzY4LTE4Ljk0NCA1NC43ODR0LTQ2LjU5MiAyMi4wMTZsLTc4NC4zODQgMHEtMzIuNzY4LTEuMDI0LTU3LjM0NC0yNC4wNjR0LTI0LjU3Ni01OS45MDRsMC00ODEuMjhxMC0xNi4zODQgNS42MzItMzEuNzQ0dDE2LjM4NC0yNy42NDggMjYuMTEyLTE5Ljk2OCAzNS44NC03LjY4bDQ0LjAzMiAwIDg4LjA2NCAwIDExNi43MzYgMCAxMzMuMTIgMCAxMzEuMDcyIDBxNjUuNTM2IDAgMTE4LjI3MiAwLjUxMnQ4OC41NzYgMC41MTJsNDQuMDMyIDB6TTg1Ny4wODggMjg2LjcybC02OTQuMjcyIDAgMS4wMjQgNDUyLjYwOCA2OTIuMjI0LTEuMDI0ek05MjQuNjcyIDQ3Ny4xODRxLTE1LjM2IDAtMjYuNjI0IDEwLjc1MnQtMTEuMjY0IDI2LjExMiAxMS4yNjQgMjYuMTEyIDI2LjYyNCAxMC43NTIgMjYuNjI0LTEwLjc1MiAxMS4yNjQtMjYuMTEyLTExLjI2NC0yNi4xMTItMjYuNjI0LTEwLjc1MnoiIHAtaWQ9IjE3MDA4Ii8+PC9zdmc+;" vertex="1" parent="1">
          <mxGeometry x="-100" y="600" width="40" height="40" as="geometry" />
        </mxCell>
        <mxCell id="ZC7nCOSCyeTa1KZI1qYi-21" style="edgeStyle=orthogonalEdgeStyle;rounded=0;orthogonalLoop=1;jettySize=auto;html=1;entryX=0.5;entryY=1;entryDx=0;entryDy=0;dashed=1;" edge="1" parent="1" source="ZC7nCOSCyeTa1KZI1qYi-9" target="ZC7nCOSCyeTa1KZI1qYi-19">
          <mxGeometry relative="1" as="geometry" />
        </mxCell>
        <mxCell id="ZC7nCOSCyeTa1KZI1qYi-9" value="" style="shape=image;verticalLabelPosition=bottom;labelBackgroundColor=#ffffff;verticalAlign=top;aspect=fixed;imageAspect=0;image=data:image/svg+xml,PHN2ZyB4bWxucz0iaHR0cDovL3d3dy53My5vcmcvMjAwMC9zdmciIHhtbG5zOnhsaW5rPSJodHRwOi8vd3d3LnczLm9yZy8xOTk5L3hsaW5rIiB0PSIxNjM5NzA3MDQ4NTEzIiBjbGFzcz0iaWNvbiIgdmlld0JveD0iMCAwIDEwMjQgMTAyNCIgdmVyc2lvbj0iMS4xIiBwLWlkPSIxNjE1NiIgd2lkdGg9IjI1MCIgaGVpZ2h0PSIyNTAiPjxkZWZzPjxzdHlsZSB0eXBlPSJ0ZXh0L2NzcyIvPjwvZGVmcz48cGF0aCBkPSJNODc2LjU0NCA1NDcuODRsMy4wNzIgMC03MzEuMTM2IDAgMC00MzQuMTc2cTAtNDMuMDA4IDIxLjUwNC02Ni4wNDh0NjUuNTM2LTIzLjA0bDU1OC4wOCAwcTQ2LjA4IDAgNjUuMDI0IDI2LjExMnQxNy45MiA2Ny4wNzJsMCA0MzAuMDh6TTgwMC43NjggOTYuMjU2bC01NzkuNTg0IDAgMCAzMjMuNTg0IDU3OS41ODQgMS4wMjQgMC0zMjQuNjA4ek01NjMuMiA0ODQuMzUycTAtMTQuMzM2LTE5LjQ1Ni0xNi4zODRsLTYyLjQ2NCAwcS0xOS40NTYgMC0xOS40NTYgMTYuMzg0IDAgNS4xMiA1LjEyIDEwLjI0dDEzLjMxMiA2LjE0NGw2MS40NC0xLjAyNHE5LjIxNiAwIDE1LjM2LTUuMTJ0Ni4xNDQtMTAuMjR6TTg1OS4xMzYgNjA2LjIwOHExMS4yNjQgMCAxNS4zNiA3LjE2OHQxMi4yODggMjAuNDhxNC4wOTYgNy4xNjggMTUuMzYgMjUuNnQyNC4wNjQgMzkuNDI0IDI0LjA2NCAzOS40MjQgMTUuMzYgMjQuNTc2cTguMTkyIDEzLjMxMiAxMy44MjQgMjUuMDg4dC03LjY4IDI4LjE2cS0yNi42MjQgMzEuNzQ0LTQ2LjA4IDM4LjkxMnQtMjkuNjk2IDcuMTY4bC0zOC45MTIgMC04OS4wODggMC0xMjEuODU2IDAtMTM4LjI0IDAtMTM3LjIxNiAwcS02Ny41ODQgMC0xMjEuMzQ0LTAuNTEydC04Ny41NTItMC41MTJsLTM4LjkxMiAwcS04LjE5MiAwLTE2Ljg5Ni00LjA5NnQtMTcuOTItMTAuNzUyLTE2Ljg5Ni0xNC4zMzYtMTMuODI0LTE0Ljg0OHEtNy4xNjgtOS4yMTYtOS4yMTYtMTYuMzg0dC0wLjUxMi0xMi44IDUuNjMyLTEwLjc1MiA4LjE5Mi0xMi4yODhxNC4wOTYtNi4xNDQgMTMuODI0LTIyLjAxNnQyMC45OTItMzUuMzI4bDI0LjU3Ni0zOC45MTJxMTEuMjY0LTE5LjQ1NiAxOS40NTYtMzIuNzY4dDEzLjgyNC0xOS45NjggMTEuNzc2LTguNzA0IDEzLjMxMi0xLjUzNiAxOC40MzIgMC41MTJsNjYxLjUwNCAwek05MDkuMzEyIDc5NS42NDhxMC03LjE2OC02LjE0NC0xMS43NzZ0LTEzLjMxMi00LjYwOGwtNzQ3LjUyIDBxLTcuMTY4IDAtMTQuMzM2IDQuNjA4dC03LjE2OCAxMS43NzYgNi4xNDQgMTIuMjg4IDEzLjMxMiA1LjEybDc0OC41NDQgMHE3LjE2OCAwIDEzLjgyNC01LjEydDYuNjU2LTEyLjI4OHoiIHAtaWQ9IjE2MTU3Ii8+PC9zdmc+;" vertex="1" parent="1">
          <mxGeometry x="15" y="600" width="50" height="50" as="geometry" />
        </mxCell>
        <mxCell id="ZC7nCOSCyeTa1KZI1qYi-23" style="edgeStyle=orthogonalEdgeStyle;rounded=0;orthogonalLoop=1;jettySize=auto;html=1;entryX=1;entryY=0.5;entryDx=0;entryDy=0;dashed=1;" edge="1" parent="1" source="ZC7nCOSCyeTa1KZI1qYi-10" target="ZC7nCOSCyeTa1KZI1qYi-2">
          <mxGeometry relative="1" as="geometry" />
        </mxCell>
        <mxCell id="ZC7nCOSCyeTa1KZI1qYi-10" value="" style="shape=image;verticalLabelPosition=bottom;labelBackgroundColor=#ffffff;verticalAlign=top;aspect=fixed;imageAspect=0;image=data:image/svg+xml,PHN2ZyB4bWxucz0iaHR0cDovL3d3dy53My5vcmcvMjAwMC9zdmciIHhtbG5zOnhsaW5rPSJodHRwOi8vd3d3LnczLm9yZy8xOTk5L3hsaW5rIiB0PSIxNjM5NzA3MDM0MTM1IiBjbGFzcz0iaWNvbiIgdmlld0JveD0iMCAwIDEwMjQgMTAyNCIgdmVyc2lvbj0iMS4xIiBwLWlkPSIxNTAyOSIgd2lkdGg9IjI1MCIgaGVpZ2h0PSIyNTAiPjxkZWZzPjxzdHlsZSB0eXBlPSJ0ZXh0L2NzcyIvPjwvZGVmcz48cGF0aCBkPSJNODIwLjQwOTQ0OSA3OTcuMjI4MzQ2cTAgMjUuMTk2ODUtMTAuMDc4NzQgNDYuODY2MTQydC0yNy43MTY1MzUgMzguMjk5MjEzLTQxLjMyMjgzNSAyNi4yMDQ3MjQtNTAuODk3NjM4IDkuNTc0ODAzbC0zNTcuNzk1Mjc2IDBxLTI3LjIxMjU5OCAwLTUwLjg5NzYzOC05LjU3NDgwM3QtNDEuMzIyODM1LTI2LjIwNDcyNC0yNy43MTY1MzUtMzguMjk5MjEzLTEwLjA3ODc0LTQ2Ljg2NjE0MmwwLTY3NS4yNzU1OTFxMC0yNS4xOTY4NSAxMC4wNzg3NC00Ny4zNzAwNzl0MjcuNzE2NTM1LTM4LjgwMzE1IDQxLjMyMjgzNS0yNi4yMDQ3MjQgNTAuODk3NjM4LTkuNTc0ODAzbDM1Ny43OTUyNzYgMHEyNy4yMTI1OTggMCA1MC44OTc2MzggOS41NzQ4MDN0NDEuMzIyODM1IDI2LjIwNDcyNCAyNy43MTY1MzUgMzguODAzMTUgMTAuMDc4NzQgNDcuMzcwMDc5bDAgNjc1LjI3NTU5MXpNNzM4Ljc3MTY1NCAxNzAuMzMwNzA5bC00NTUuNTU5MDU1IDAgMCA1NzcuNTExODExIDQ1NS41NTkwNTUgMCAwLTU3Ny41MTE4MTF6TTUxMC45OTIxMjYgNzc2LjA2Mjk5MnEtMjEuMTY1MzU0IDAtMzYuNzg3NDAyIDE1LjExODExdC0xNS42MjIwNDcgMzcuMjkxMzM5cTAgMjEuMTY1MzU0IDE1LjYyMjA0NyAzNi43ODc0MDJ0MzYuNzg3NDAyIDE1LjYyMjA0N3EyMi4xNzMyMjggMCAzNy4yOTEzMzktMTUuNjIyMDQ3dDE1LjExODExLTM2Ljc4NzQwMnEwLTIyLjE3MzIyOC0xNS4xMTgxMS0zNy4yOTEzMzl0LTM3LjI5MTMzOS0xNS4xMTgxMXpNNTkxLjYyMjA0NyA4NC42NjE0MTdxMC04LjA2Mjk5Mi01LjAzOTM3LTEyLjU5ODQyNXQtMTEuMDg2NjE0LTQuNTM1NDMzbC0xMjggMHEtNS4wMzkzNyAwLTEwLjU4MjY3NyA0LjUzNTQzM3QtNS41NDMzMDcgMTIuNTk4NDI1IDUuMDM5MzcgMTIuNTk4NDI1IDExLjA4NjYxNCA0LjUzNTQzM2wxMjggMHE2LjA0NzI0NCAwIDExLjA4NjYxNC00LjUzNTQzM3Q1LjAzOTM3LTEyLjU5ODQyNXoiIHAtaWQ9IjE1MDMwIi8+PC9zdmc+;" vertex="1" parent="1">
          <mxGeometry x="140" y="600" width="40" height="40" as="geometry" />
        </mxCell>
        <mxCell id="ZC7nCOSCyeTa1KZI1qYi-22" style="edgeStyle=orthogonalEdgeStyle;rounded=0;orthogonalLoop=1;jettySize=auto;html=1;dashed=1;" edge="1" parent="1" source="ZC7nCOSCyeTa1KZI1qYi-19" target="ZC7nCOSCyeTa1KZI1qYi-2">
          <mxGeometry relative="1" as="geometry" />
        </mxCell>
        <mxCell id="ZC7nCOSCyeTa1KZI1qYi-19" value="" style="shape=image;verticalLabelPosition=bottom;labelBackgroundColor=#ffffff;verticalAlign=top;aspect=fixed;imageAspect=0;image=data:image/svg+xml,PHN2ZyB4bWxucz0iaHR0cDovL3d3dy53My5vcmcvMjAwMC9zdmciIHhtbG5zOnhsaW5rPSJodHRwOi8vd3d3LnczLm9yZy8xOTk5L3hsaW5rIiB0PSIxNjM5NzA3NDU4NTk4IiBjbGFzcz0iaWNvbiIgdmlld0JveD0iMCAwIDEwMjQgMTAyNCIgdmVyc2lvbj0iMS4xIiBwLWlkPSIxNzk1OCIgd2lkdGg9IjI1MCIgaGVpZ2h0PSIyNTAiPjxkZWZzPjxzdHlsZSB0eXBlPSJ0ZXh0L2NzcyIvPjwvZGVmcz48cGF0aCBkPSJNNTQ0IDgzMmg5NnY5NmgtOTZ2LTk2eiBtMC0xMjhoOTZ2OTZoLTk2di05NnogbTAtMTI4aDk2djk2aC05NnYtOTZ6IG0xMjggMjU2aDk2djk2aC05NnYtOTZ6IG0wLTEyOGg5NnY5NmgtOTZ2LTk2eiBtMTI4IDEyOGg5NnY5NmgtOTZ2LTk2eiBtNjQtMjg4aDk2djk2aC05NnYtOTZ6IG0zLjg3MiAxMjhsNjcuOTA0IDY3Ljg3Mi02Ny45MDQgNjcuOTA0TDgwMCA3MzkuODQgODY3Ljg3MiA2NzJ6IG0tMTI4LTEyOGw2Ny45MDQgNjcuODcyLTY3LjkwNCA2Ny45MDRMNjcyIDYxMS44NCA3MzkuODcyIDU0NHpNNDgwIDg5NnYzMkgyODhWMjg4aDU3NnYxOTJoLTMydi0xNjBIMzIwdjU3NmgxNjB6IG0tMjI0LTk2djMySDE5MlYxOTJoNTc2djY0aC0zMlYyMjRIMjI0djU3NmgzMnogbS05Ni05NnYzMkg5NlY5Nmg1NzZ2NjRoLTMyVjEyOEgxMjh2NTc2aDMyeiIgcC1pZD0iMTc5NTkiIGZpbGw9IiM1MTUxNTEiLz48L3N2Zz4=;" vertex="1" parent="1">
          <mxGeometry x="15" y="490" width="50" height="50" as="geometry" />
        </mxCell>
        <mxCell id="ZC7nCOSCyeTa1KZI1qYi-20" value="" style="shape=image;verticalLabelPosition=bottom;labelBackgroundColor=#ffffff;verticalAlign=top;aspect=fixed;imageAspect=0;image=data:image/svg+xml,PHN2ZyB4bWxucz0iaHR0cDovL3d3dy53My5vcmcvMjAwMC9zdmciIHhtbG5zOnhsaW5rPSJodHRwOi8vd3d3LnczLm9yZy8xOTk5L3hsaW5rIiB0PSIxNjM5NzA3NDU4NTk4IiBjbGFzcz0iaWNvbiIgdmlld0JveD0iMCAwIDEwMjQgMTAyNCIgdmVyc2lvbj0iMS4xIiBwLWlkPSIxNzk1OCIgd2lkdGg9IjI1MCIgaGVpZ2h0PSIyNTAiPjxkZWZzPjxzdHlsZSB0eXBlPSJ0ZXh0L2NzcyIvPjwvZGVmcz48cGF0aCBkPSJNNTQ0IDgzMmg5NnY5NmgtOTZ2LTk2eiBtMC0xMjhoOTZ2OTZoLTk2di05NnogbTAtMTI4aDk2djk2aC05NnYtOTZ6IG0xMjggMjU2aDk2djk2aC05NnYtOTZ6IG0wLTEyOGg5NnY5NmgtOTZ2LTk2eiBtMTI4IDEyOGg5NnY5NmgtOTZ2LTk2eiBtNjQtMjg4aDk2djk2aC05NnYtOTZ6IG0zLjg3MiAxMjhsNjcuOTA0IDY3Ljg3Mi02Ny45MDQgNjcuOTA0TDgwMCA3MzkuODQgODY3Ljg3MiA2NzJ6IG0tMTI4LTEyOGw2Ny45MDQgNjcuODcyLTY3LjkwNCA2Ny45MDRMNjcyIDYxMS44NCA3MzkuODcyIDU0NHpNNDgwIDg5NnYzMkgyODhWMjg4aDU3NnYxOTJoLTMydi0xNjBIMzIwdjU3NmgxNjB6IG0tMjI0LTk2djMySDE5MlYxOTJoNTc2djY0aC0zMlYyMjRIMjI0djU3NmgzMnogbS05Ni05NnYzMkg5NlY5Nmg1NzZ2NjRoLTMyVjEyOEgxMjh2NTc2aDMyeiIgcC1pZD0iMTc5NTkiIGZpbGw9IiM1MTUxNTEiLz48L3N2Zz4=;" vertex="1" parent="1">
          <mxGeometry x="150" y="490" width="50" height="50" as="geometry" />
        </mxCell>
        <mxCell id="ZC7nCOSCyeTa1KZI1qYi-25" value="" style="shape=image;verticalLabelPosition=bottom;labelBackgroundColor=#ffffff;verticalAlign=top;aspect=fixed;imageAspect=0;image=data:image/svg+xml,PHN2ZyB4bWxucz0iaHR0cDovL3d3dy53My5vcmcvMjAwMC9zdmciIHhtbG5zOnhsaW5rPSJodHRwOi8vd3d3LnczLm9yZy8xOTk5L3hsaW5rIiB0PSIxNjM5NzA3NDU4NTk4IiBjbGFzcz0iaWNvbiIgdmlld0JveD0iMCAwIDEwMjQgMTAyNCIgdmVyc2lvbj0iMS4xIiBwLWlkPSIxNzk1OCIgd2lkdGg9IjI1MCIgaGVpZ2h0PSIyNTAiPjxkZWZzPjxzdHlsZSB0eXBlPSJ0ZXh0L2NzcyIvPjwvZGVmcz48cGF0aCBkPSJNNTQ0IDgzMmg5NnY5NmgtOTZ2LTk2eiBtMC0xMjhoOTZ2OTZoLTk2di05NnogbTAtMTI4aDk2djk2aC05NnYtOTZ6IG0xMjggMjU2aDk2djk2aC05NnYtOTZ6IG0wLTEyOGg5NnY5NmgtOTZ2LTk2eiBtMTI4IDEyOGg5NnY5NmgtOTZ2LTk2eiBtNjQtMjg4aDk2djk2aC05NnYtOTZ6IG0zLjg3MiAxMjhsNjcuOTA0IDY3Ljg3Mi02Ny45MDQgNjcuOTA0TDgwMCA3MzkuODQgODY3Ljg3MiA2NzJ6IG0tMTI4LTEyOGw2Ny45MDQgNjcuODcyLTY3LjkwNCA2Ny45MDRMNjcyIDYxMS44NCA3MzkuODcyIDU0NHpNNDgwIDg5NnYzMkgyODhWMjg4aDU3NnYxOTJoLTMydi0xNjBIMzIwdjU3NmgxNjB6IG0tMjI0LTk2djMySDE5MlYxOTJoNTc2djY0aC0zMlYyMjRIMjI0djU3NmgzMnogbS05Ni05NnYzMkg5NlY5Nmg1NzZ2NjRoLTMyVjEyOEgxMjh2NTc2aDMyeiIgcC1pZD0iMTc5NTkiIGZpbGw9IiM1MTUxNTEiLz48L3N2Zz4=;" vertex="1" parent="1">
          <mxGeometry x="-120" y="490" width="50" height="50" as="geometry" />
        </mxCell>
        <mxCell id="ZC7nCOSCyeTa1KZI1qYi-34" style="edgeStyle=orthogonalEdgeStyle;rounded=0;orthogonalLoop=1;jettySize=auto;html=1;entryX=0;entryY=0.5;entryDx=0;entryDy=0;dashed=1;" edge="1" parent="1" source="ZC7nCOSCyeTa1KZI1qYi-26" target="ZC7nCOSCyeTa1KZI1qYi-5">
          <mxGeometry relative="1" as="geometry" />
        </mxCell>
        <mxCell id="ZC7nCOSCyeTa1KZI1qYi-26" value="" style="shape=image;verticalLabelPosition=bottom;labelBackgroundColor=#ffffff;verticalAlign=top;aspect=fixed;imageAspect=0;image=data:image/svg+xml,PHN2ZyB4bWxucz0iaHR0cDovL3d3dy53My5vcmcvMjAwMC9zdmciIHhtbG5zOnhsaW5rPSJodHRwOi8vd3d3LnczLm9yZy8xOTk5L3hsaW5rIiB0PSIxNjM5NzA3MDY3NDE5IiBjbGFzcz0iaWNvbiIgdmlld0JveD0iMCAwIDEwMjQgMTAyNCIgdmVyc2lvbj0iMS4xIiBwLWlkPSIxNzAwNyIgd2lkdGg9IjI1MCIgaGVpZ2h0PSIyNTAiPjxkZWZzPjxzdHlsZSB0eXBlPSJ0ZXh0L2NzcyIvPjwvZGVmcz48cGF0aCBkPSJNOTAyLjE0NCAxOTAuNDY0cTQzLjAwOCAxLjAyNCA2NC41MTIgMjQuMDY0dDIxLjUwNCA2MC45MjhsMCA0MS45ODRxMCAzNi44NjQtMC41MTIgODguNTc2dC0wLjUxMiAxMTEuNjE2LTAuNTEyIDExMi4xMjgtMC41MTIgOTAuMTEybDAgNDUuMDU2cTAgMzIuNzY4LTE4Ljk0NCA1NC43ODR0LTQ2LjU5MiAyMi4wMTZsLTc4NC4zODQgMHEtMzIuNzY4LTEuMDI0LTU3LjM0NC0yNC4wNjR0LTI0LjU3Ni01OS45MDRsMC00ODEuMjhxMC0xNi4zODQgNS42MzItMzEuNzQ0dDE2LjM4NC0yNy42NDggMjYuMTEyLTE5Ljk2OCAzNS44NC03LjY4bDQ0LjAzMiAwIDg4LjA2NCAwIDExNi43MzYgMCAxMzMuMTIgMCAxMzEuMDcyIDBxNjUuNTM2IDAgMTE4LjI3MiAwLjUxMnQ4OC41NzYgMC41MTJsNDQuMDMyIDB6TTg1Ny4wODggMjg2LjcybC02OTQuMjcyIDAgMS4wMjQgNDUyLjYwOCA2OTIuMjI0LTEuMDI0ek05MjQuNjcyIDQ3Ny4xODRxLTE1LjM2IDAtMjYuNjI0IDEwLjc1MnQtMTEuMjY0IDI2LjExMiAxMS4yNjQgMjYuMTEyIDI2LjYyNCAxMC43NTIgMjYuNjI0LTEwLjc1MiAxMS4yNjQtMjYuMTEyLTExLjI2NC0yNi4xMTItMjYuNjI0LTEwLjc1MnoiIHAtaWQ9IjE3MDA4Ii8+PC9zdmc+;" vertex="1" parent="1">
          <mxGeometry x="280" y="595" width="40" height="40" as="geometry" />
        </mxCell>
        <mxCell id="ZC7nCOSCyeTa1KZI1qYi-31" style="edgeStyle=orthogonalEdgeStyle;rounded=0;orthogonalLoop=1;jettySize=auto;html=1;dashed=1;" edge="1" parent="1" source="ZC7nCOSCyeTa1KZI1qYi-27" target="ZC7nCOSCyeTa1KZI1qYi-29">
          <mxGeometry relative="1" as="geometry" />
        </mxCell>
        <mxCell id="ZC7nCOSCyeTa1KZI1qYi-27" value="" style="shape=image;verticalLabelPosition=bottom;labelBackgroundColor=#ffffff;verticalAlign=top;aspect=fixed;imageAspect=0;image=data:image/svg+xml,PHN2ZyB4bWxucz0iaHR0cDovL3d3dy53My5vcmcvMjAwMC9zdmciIHhtbG5zOnhsaW5rPSJodHRwOi8vd3d3LnczLm9yZy8xOTk5L3hsaW5rIiB0PSIxNjM5NzA3MDQ4NTEzIiBjbGFzcz0iaWNvbiIgdmlld0JveD0iMCAwIDEwMjQgMTAyNCIgdmVyc2lvbj0iMS4xIiBwLWlkPSIxNjE1NiIgd2lkdGg9IjI1MCIgaGVpZ2h0PSIyNTAiPjxkZWZzPjxzdHlsZSB0eXBlPSJ0ZXh0L2NzcyIvPjwvZGVmcz48cGF0aCBkPSJNODc2LjU0NCA1NDcuODRsMy4wNzIgMC03MzEuMTM2IDAgMC00MzQuMTc2cTAtNDMuMDA4IDIxLjUwNC02Ni4wNDh0NjUuNTM2LTIzLjA0bDU1OC4wOCAwcTQ2LjA4IDAgNjUuMDI0IDI2LjExMnQxNy45MiA2Ny4wNzJsMCA0MzAuMDh6TTgwMC43NjggOTYuMjU2bC01NzkuNTg0IDAgMCAzMjMuNTg0IDU3OS41ODQgMS4wMjQgMC0zMjQuNjA4ek01NjMuMiA0ODQuMzUycTAtMTQuMzM2LTE5LjQ1Ni0xNi4zODRsLTYyLjQ2NCAwcS0xOS40NTYgMC0xOS40NTYgMTYuMzg0IDAgNS4xMiA1LjEyIDEwLjI0dDEzLjMxMiA2LjE0NGw2MS40NC0xLjAyNHE5LjIxNiAwIDE1LjM2LTUuMTJ0Ni4xNDQtMTAuMjR6TTg1OS4xMzYgNjA2LjIwOHExMS4yNjQgMCAxNS4zNiA3LjE2OHQxMi4yODggMjAuNDhxNC4wOTYgNy4xNjggMTUuMzYgMjUuNnQyNC4wNjQgMzkuNDI0IDI0LjA2NCAzOS40MjQgMTUuMzYgMjQuNTc2cTguMTkyIDEzLjMxMiAxMy44MjQgMjUuMDg4dC03LjY4IDI4LjE2cS0yNi42MjQgMzEuNzQ0LTQ2LjA4IDM4LjkxMnQtMjkuNjk2IDcuMTY4bC0zOC45MTIgMC04OS4wODggMC0xMjEuODU2IDAtMTM4LjI0IDAtMTM3LjIxNiAwcS02Ny41ODQgMC0xMjEuMzQ0LTAuNTEydC04Ny41NTItMC41MTJsLTM4LjkxMiAwcS04LjE5MiAwLTE2Ljg5Ni00LjA5NnQtMTcuOTItMTAuNzUyLTE2Ljg5Ni0xNC4zMzYtMTMuODI0LTE0Ljg0OHEtNy4xNjgtOS4yMTYtOS4yMTYtMTYuMzg0dC0wLjUxMi0xMi44IDUuNjMyLTEwLjc1MiA4LjE5Mi0xMi4yODhxNC4wOTYtNi4xNDQgMTMuODI0LTIyLjAxNnQyMC45OTItMzUuMzI4bDI0LjU3Ni0zOC45MTJxMTEuMjY0LTE5LjQ1NiAxOS40NTYtMzIuNzY4dDEzLjgyNC0xOS45NjggMTEuNzc2LTguNzA0IDEzLjMxMi0xLjUzNiAxOC40MzIgMC41MTJsNjYxLjUwNCAwek05MDkuMzEyIDc5NS42NDhxMC03LjE2OC02LjE0NC0xMS43NzZ0LTEzLjMxMi00LjYwOGwtNzQ3LjUyIDBxLTcuMTY4IDAtMTQuMzM2IDQuNjA4dC03LjE2OCAxMS43NzYgNi4xNDQgMTIuMjg4IDEzLjMxMiA1LjEybDc0OC41NDQgMHE3LjE2OCAwIDEzLjgyNC01LjEydDYuNjU2LTEyLjI4OHoiIHAtaWQ9IjE2MTU3Ii8+PC9zdmc+;" vertex="1" parent="1">
          <mxGeometry x="395" y="595" width="50" height="50" as="geometry" />
        </mxCell>
        <mxCell id="ZC7nCOSCyeTa1KZI1qYi-33" style="edgeStyle=orthogonalEdgeStyle;rounded=0;orthogonalLoop=1;jettySize=auto;html=1;entryX=1;entryY=0.5;entryDx=0;entryDy=0;dashed=1;" edge="1" parent="1" source="ZC7nCOSCyeTa1KZI1qYi-28" target="ZC7nCOSCyeTa1KZI1qYi-5">
          <mxGeometry relative="1" as="geometry" />
        </mxCell>
        <mxCell id="ZC7nCOSCyeTa1KZI1qYi-28" value="" style="shape=image;verticalLabelPosition=bottom;labelBackgroundColor=#ffffff;verticalAlign=top;aspect=fixed;imageAspect=0;image=data:image/svg+xml,PHN2ZyB4bWxucz0iaHR0cDovL3d3dy53My5vcmcvMjAwMC9zdmciIHhtbG5zOnhsaW5rPSJodHRwOi8vd3d3LnczLm9yZy8xOTk5L3hsaW5rIiB0PSIxNjM5NzA3MDM0MTM1IiBjbGFzcz0iaWNvbiIgdmlld0JveD0iMCAwIDEwMjQgMTAyNCIgdmVyc2lvbj0iMS4xIiBwLWlkPSIxNTAyOSIgd2lkdGg9IjI1MCIgaGVpZ2h0PSIyNTAiPjxkZWZzPjxzdHlsZSB0eXBlPSJ0ZXh0L2NzcyIvPjwvZGVmcz48cGF0aCBkPSJNODIwLjQwOTQ0OSA3OTcuMjI4MzQ2cTAgMjUuMTk2ODUtMTAuMDc4NzQgNDYuODY2MTQydC0yNy43MTY1MzUgMzguMjk5MjEzLTQxLjMyMjgzNSAyNi4yMDQ3MjQtNTAuODk3NjM4IDkuNTc0ODAzbC0zNTcuNzk1Mjc2IDBxLTI3LjIxMjU5OCAwLTUwLjg5NzYzOC05LjU3NDgwM3QtNDEuMzIyODM1LTI2LjIwNDcyNC0yNy43MTY1MzUtMzguMjk5MjEzLTEwLjA3ODc0LTQ2Ljg2NjE0MmwwLTY3NS4yNzU1OTFxMC0yNS4xOTY4NSAxMC4wNzg3NC00Ny4zNzAwNzl0MjcuNzE2NTM1LTM4LjgwMzE1IDQxLjMyMjgzNS0yNi4yMDQ3MjQgNTAuODk3NjM4LTkuNTc0ODAzbDM1Ny43OTUyNzYgMHEyNy4yMTI1OTggMCA1MC44OTc2MzggOS41NzQ4MDN0NDEuMzIyODM1IDI2LjIwNDcyNCAyNy43MTY1MzUgMzguODAzMTUgMTAuMDc4NzQgNDcuMzcwMDc5bDAgNjc1LjI3NTU5MXpNNzM4Ljc3MTY1NCAxNzAuMzMwNzA5bC00NTUuNTU5MDU1IDAgMCA1NzcuNTExODExIDQ1NS41NTkwNTUgMCAwLTU3Ny41MTE4MTF6TTUxMC45OTIxMjYgNzc2LjA2Mjk5MnEtMjEuMTY1MzU0IDAtMzYuNzg3NDAyIDE1LjExODExdC0xNS42MjIwNDcgMzcuMjkxMzM5cTAgMjEuMTY1MzU0IDE1LjYyMjA0NyAzNi43ODc0MDJ0MzYuNzg3NDAyIDE1LjYyMjA0N3EyMi4xNzMyMjggMCAzNy4yOTEzMzktMTUuNjIyMDQ3dDE1LjExODExLTM2Ljc4NzQwMnEwLTIyLjE3MzIyOC0xNS4xMTgxMS0zNy4yOTEzMzl0LTM3LjI5MTMzOS0xNS4xMTgxMXpNNTkxLjYyMjA0NyA4NC42NjE0MTdxMC04LjA2Mjk5Mi01LjAzOTM3LTEyLjU5ODQyNXQtMTEuMDg2NjE0LTQuNTM1NDMzbC0xMjggMHEtNS4wMzkzNyAwLTEwLjU4MjY3NyA0LjUzNTQzM3QtNS41NDMzMDcgMTIuNTk4NDI1IDUuMDM5MzcgMTIuNTk4NDI1IDExLjA4NjYxNCA0LjUzNTQzM2wxMjggMHE2LjA0NzI0NCAwIDExLjA4NjYxNC00LjUzNTQzM3Q1LjAzOTM3LTEyLjU5ODQyNXoiIHAtaWQ9IjE1MDMwIi8+PC9zdmc+;" vertex="1" parent="1">
          <mxGeometry x="520" y="595" width="40" height="40" as="geometry" />
        </mxCell>
        <mxCell id="ZC7nCOSCyeTa1KZI1qYi-32" style="edgeStyle=orthogonalEdgeStyle;rounded=0;orthogonalLoop=1;jettySize=auto;html=1;entryX=0.5;entryY=1;entryDx=0;entryDy=0;dashed=1;" edge="1" parent="1" source="ZC7nCOSCyeTa1KZI1qYi-29" target="ZC7nCOSCyeTa1KZI1qYi-5">
          <mxGeometry relative="1" as="geometry" />
        </mxCell>
        <mxCell id="ZC7nCOSCyeTa1KZI1qYi-29" value="" style="shape=image;verticalLabelPosition=bottom;labelBackgroundColor=#ffffff;verticalAlign=top;aspect=fixed;imageAspect=0;image=data:image/svg+xml,PHN2ZyB4bWxucz0iaHR0cDovL3d3dy53My5vcmcvMjAwMC9zdmciIHhtbG5zOnhsaW5rPSJodHRwOi8vd3d3LnczLm9yZy8xOTk5L3hsaW5rIiB0PSIxNjM5NzA3NDU4NTk4IiBjbGFzcz0iaWNvbiIgdmlld0JveD0iMCAwIDEwMjQgMTAyNCIgdmVyc2lvbj0iMS4xIiBwLWlkPSIxNzk1OCIgd2lkdGg9IjI1MCIgaGVpZ2h0PSIyNTAiPjxkZWZzPjxzdHlsZSB0eXBlPSJ0ZXh0L2NzcyIvPjwvZGVmcz48cGF0aCBkPSJNNTQ0IDgzMmg5NnY5NmgtOTZ2LTk2eiBtMC0xMjhoOTZ2OTZoLTk2di05NnogbTAtMTI4aDk2djk2aC05NnYtOTZ6IG0xMjggMjU2aDk2djk2aC05NnYtOTZ6IG0wLTEyOGg5NnY5NmgtOTZ2LTk2eiBtMTI4IDEyOGg5NnY5NmgtOTZ2LTk2eiBtNjQtMjg4aDk2djk2aC05NnYtOTZ6IG0zLjg3MiAxMjhsNjcuOTA0IDY3Ljg3Mi02Ny45MDQgNjcuOTA0TDgwMCA3MzkuODQgODY3Ljg3MiA2NzJ6IG0tMTI4LTEyOGw2Ny45MDQgNjcuODcyLTY3LjkwNCA2Ny45MDRMNjcyIDYxMS44NCA3MzkuODcyIDU0NHpNNDgwIDg5NnYzMkgyODhWMjg4aDU3NnYxOTJoLTMydi0xNjBIMzIwdjU3NmgxNjB6IG0tMjI0LTk2djMySDE5MlYxOTJoNTc2djY0aC0zMlYyMjRIMjI0djU3NmgzMnogbS05Ni05NnYzMkg5NlY5Nmg1NzZ2NjRoLTMyVjEyOEgxMjh2NTc2aDMyeiIgcC1pZD0iMTc5NTkiIGZpbGw9IiM1MTUxNTEiLz48L3N2Zz4=;" vertex="1" parent="1">
          <mxGeometry x="395" y="490" width="50" height="50" as="geometry" />
        </mxCell>
        <mxCell id="ZC7nCOSCyeTa1KZI1qYi-35" value="" style="shape=image;verticalLabelPosition=bottom;labelBackgroundColor=#ffffff;verticalAlign=top;aspect=fixed;imageAspect=0;image=data:image/svg+xml,PHN2ZyB4bWxucz0iaHR0cDovL3d3dy53My5vcmcvMjAwMC9zdmciIHhtbG5zOnhsaW5rPSJodHRwOi8vd3d3LnczLm9yZy8xOTk5L3hsaW5rIiB0PSIxNjM5NzA3NDU4NTk4IiBjbGFzcz0iaWNvbiIgdmlld0JveD0iMCAwIDEwMjQgMTAyNCIgdmVyc2lvbj0iMS4xIiBwLWlkPSIxNzk1OCIgd2lkdGg9IjI1MCIgaGVpZ2h0PSIyNTAiPjxkZWZzPjxzdHlsZSB0eXBlPSJ0ZXh0L2NzcyIvPjwvZGVmcz48cGF0aCBkPSJNNTQ0IDgzMmg5NnY5NmgtOTZ2LTk2eiBtMC0xMjhoOTZ2OTZoLTk2di05NnogbTAtMTI4aDk2djk2aC05NnYtOTZ6IG0xMjggMjU2aDk2djk2aC05NnYtOTZ6IG0wLTEyOGg5NnY5NmgtOTZ2LTk2eiBtMTI4IDEyOGg5NnY5NmgtOTZ2LTk2eiBtNjQtMjg4aDk2djk2aC05NnYtOTZ6IG0zLjg3MiAxMjhsNjcuOTA0IDY3Ljg3Mi02Ny45MDQgNjcuOTA0TDgwMCA3MzkuODQgODY3Ljg3MiA2NzJ6IG0tMTI4LTEyOGw2Ny45MDQgNjcuODcyLTY3LjkwNCA2Ny45MDRMNjcyIDYxMS44NCA3MzkuODcyIDU0NHpNNDgwIDg5NnYzMkgyODhWMjg4aDU3NnYxOTJoLTMydi0xNjBIMzIwdjU3NmgxNjB6IG0tMjI0LTk2djMySDE5MlYxOTJoNTc2djY0aC0zMlYyMjRIMjI0djU3NmgzMnogbS05Ni05NnYzMkg5NlY5Nmg1NzZ2NjRoLTMyVjEyOEgxMjh2NTc2aDMyeiIgcC1pZD0iMTc5NTkiIGZpbGw9IiM1MTUxNTEiLz48L3N2Zz4=;" vertex="1" parent="1">
          <mxGeometry x="540" y="490" width="50" height="50" as="geometry" />
        </mxCell>
        <mxCell id="ZC7nCOSCyeTa1KZI1qYi-36" value="" style="shape=image;verticalLabelPosition=bottom;labelBackgroundColor=#ffffff;verticalAlign=top;aspect=fixed;imageAspect=0;image=data:image/svg+xml,PHN2ZyB4bWxucz0iaHR0cDovL3d3dy53My5vcmcvMjAwMC9zdmciIHhtbG5zOnhsaW5rPSJodHRwOi8vd3d3LnczLm9yZy8xOTk5L3hsaW5rIiB0PSIxNjM5NzA3NDU4NTk4IiBjbGFzcz0iaWNvbiIgdmlld0JveD0iMCAwIDEwMjQgMTAyNCIgdmVyc2lvbj0iMS4xIiBwLWlkPSIxNzk1OCIgd2lkdGg9IjI1MCIgaGVpZ2h0PSIyNTAiPjxkZWZzPjxzdHlsZSB0eXBlPSJ0ZXh0L2NzcyIvPjwvZGVmcz48cGF0aCBkPSJNNTQ0IDgzMmg5NnY5NmgtOTZ2LTk2eiBtMC0xMjhoOTZ2OTZoLTk2di05NnogbTAtMTI4aDk2djk2aC05NnYtOTZ6IG0xMjggMjU2aDk2djk2aC05NnYtOTZ6IG0wLTEyOGg5NnY5NmgtOTZ2LTk2eiBtMTI4IDEyOGg5NnY5NmgtOTZ2LTk2eiBtNjQtMjg4aDk2djk2aC05NnYtOTZ6IG0zLjg3MiAxMjhsNjcuOTA0IDY3Ljg3Mi02Ny45MDQgNjcuOTA0TDgwMCA3MzkuODQgODY3Ljg3MiA2NzJ6IG0tMTI4LTEyOGw2Ny45MDQgNjcuODcyLTY3LjkwNCA2Ny45MDRMNjcyIDYxMS44NCA3MzkuODcyIDU0NHpNNDgwIDg5NnYzMkgyODhWMjg4aDU3NnYxOTJoLTMydi0xNjBIMzIwdjU3NmgxNjB6IG0tMjI0LTk2djMySDE5MlYxOTJoNTc2djY0aC0zMlYyMjRIMjI0djU3NmgzMnogbS05Ni05NnYzMkg5NlY5Nmg1NzZ2NjRoLTMyVjEyOEgxMjh2NTc2aDMyeiIgcC1pZD0iMTc5NTkiIGZpbGw9IiM1MTUxNTEiLz48L3N2Zz4=;" vertex="1" parent="1">
          <mxGeometry x="260" y="490" width="50" height="50" as="geometry" />
        </mxCell>
      </root>
    </mxGraphModel>
  </diagram>
</mxfile>
